<svg id="Layer_1" data-name="Layer 1" xmlns="http://www.w3.org/2000/svg" viewBox="0 0 1190.56 841.89"><defs><style>.cls-1{fill:#231f20;}.cls-2{fill:#fff;}</style></defs><title>serp-origins</title><rect class="cls-1" width="1190.56" height="841.89"/><path class="cls-2" d="M115.14,804.58H40a0.25,0.25,0,0,1-.27-0.39l20-53.34a0.26,0.26,0,0,0,0-.2l-20-53.34a0.25,0.25,0,0,1,.27-0.39h75.15a0.25,0.25,0,0,1,.27.39l-20,53.34a0.26,0.26,0,0,0,0,.2l20,53.34a0.25,0.25,0,0,1-.27.39M99.07,750.85a0.27,0.27,0,0,1,0-.2l21.29-56.78a0.25,0.25,0,0,0-.27-0.39H35a0.25,0.25,0,0,0-.27.39l21.29,56.78a0.26,0.26,0,0,1,0,.2L34.76,807.63A0.25,0.25,0,0,0,35,808H120.1a0.25,0.25,0,0,0,.27-0.39L99.07,750.85"/><path class="cls-2" d="M930.79,804.19a0.25,0.25,0,0,1-.27.39H855.36a0.25,0.25,0,0,1-.27-0.39l20-53.34a0.24,0.24,0,0,0,0-.2L853.7,693.59a0.24,0.24,0,0,1,0-.2l21.39-57.06a0.24,0.24,0,0,0,0-.2l-20-53.34a0.25,0.25,0,0,1,.27-0.39h75.15a0.25,0.25,0,0,1,.27.39l-20,53.34a0.27,0.27,0,0,0,0,.2l21.4,57.06a0.27,0.27,0,0,1,0,.2l-21.4,57.06a0.27,0.27,0,0,0,0,.2l20,53.34m5.06-110.6a0.24,0.24,0,0,0,0-.2l-21.39-57.06a0.24,0.24,0,0,1,0-.2l21.29-56.77a0.25,0.25,0,0,0-.27-0.39H850.41a0.25,0.25,0,0,0-.27.39l21.29,56.77a0.27,0.27,0,0,1,0,.2L850,693.39a0.27,0.27,0,0,0,0,.2l21.4,57.06a0.27,0.27,0,0,1,0,.2l-21.29,56.78a0.25,0.25,0,0,0,.27.39h85.07a0.25,0.25,0,0,0,.27-0.39l-21.29-56.78a0.24,0.24,0,0,1,0-.2l21.39-57.06"/><path class="cls-2" d="M1149.4,804.58h-92.46a0.25,0.25,0,0,1-.29-0.31,46.67,46.67,0,0,1,43.2-42.81c1.11-.08,2.21-0.12,3.32-0.12s2.21,0,3.32.12a46.68,46.68,0,0,1,43.2,42.81,0.25,0.25,0,0,1-.29.31m-65.11-50.66a46.68,46.68,0,0,1-27.63-38.86s0,0,0-.07a0.25,0.25,0,0,1,.29-0.31h92.46a0.25,0.25,0,0,1,.29.31s0,0,0,.07a46.67,46.67,0,0,1-27.63,38.86,45.53,45.53,0,0,1-17.43,4l-1.45,0-1.45,0a45.49,45.49,0,0,1-17.43-4m32.87,6a0.28,0.28,0,0,1,0-.55,50.12,50.12,0,0,0,36-44.42c0.09-1.13.13-2.26,0.14-3.4a0.25,0.25,0,0,0-.29-0.29h-99.64a0.25,0.25,0,0,0-.29.29q0,1.7.13,3.4a50.13,50.13,0,0,0,36,44.42,0.28,0.28,0,0,1,0,.55,50.09,50.09,0,0,0-36,44.42c-0.09,1.13-.13,2.26-0.14,3.4a0.24,0.24,0,0,0,.29.29H1153a0.25,0.25,0,0,0,.29-0.29c0-1.14-.06-2.27-0.14-3.4a50.09,50.09,0,0,0-36-44.42"/><path class="cls-2" d="M594,419.64c-51.39,0-93.56-32.93-124.48-67.82C494.64,321,532.62,293,573.78,286l0.07,0,0.36-.05-0.43.08c-47.9,16.4-57.24,80-16.08,109.5s98.49,0,98.41-50.61a62.24,62.24,0,0,0-42.48-59l-3.87-.58c44.36,5.8,81.16,35.69,108.73,66.8C689.33,387.79,643.44,419.6,594,419.64M593.9,286.09a58.78,58.78,0,1,1-58.78,58.77,58.78,58.78,0,0,1,58.78-58.77m127.16,63.7c-31.65-35.71-74.66-69.07-127.16-69-50.49.09-97.26,32.32-127.07,68.85-0.6.75-1.2,1.51-1.78,2.28l1.89,2.15c31.65,35.71,74.66,69.07,127.17,69,50.49-.09,97.26-32.31,127.07-68.85,0.61-.75,1.2-1.51,1.78-2.28l-1.89-2.15"/><path class="cls-2" d="M1074.23,205.49C995.3,205.3,969.81,99.23,1040,63.2l2.51-1.29a0.25,0.25,0,0,0,.14-0.36L1035.18,42a0.25,0.25,0,0,1,.27-0.39h78a0.25,0.25,0,0,1,.27.39l-7.22,19.79a0.24,0.24,0,0,0,.14.35l2.46,1.27c70.05,36.38,44,142.32-34.88,142.13m36.69-145.06a0.25,0.25,0,0,1-.14-0.35l7.87-21.57a0.25,0.25,0,0,0-.27-0.39h-87.93a0.25,0.25,0,0,0-.27.39l8.19,21.39a0.25,0.25,0,0,1-.14.36c-73.19,37.86-46.41,148.47,36,148.67s109.7-110.29,36.7-148.49"/><path class="cls-2" d="M134.07,110.55l-2.92.83a0.25,0.25,0,0,0-.2.34l20.68,84.53a0.25,0.25,0,0,1-.28.36H75a0.25,0.25,0,0,1-.28-0.36Q85.35,154,96,111.73a0.24,0.24,0,0,0-.2-0.34l-2.94-.84a75.33,75.33,0,0,1-54.6-68.69,0.25,0.25,0,0,1,.29-0.3H188.38a0.24,0.24,0,0,1,.29.3,75.33,75.33,0,0,1-54.6,68.69m57.84-72.42H35a0.25,0.25,0,0,0-.29.29c0,1.1,0,2.2.08,3.3a78.77,78.77,0,0,0,56.85,72.06,0.25,0.25,0,0,1,.2.34L70.28,199.68a0.25,0.25,0,0,0,.28.36h85.16a0.25,0.25,0,0,0,.28-0.36q-10.46-42.78-20.93-85.56a0.25,0.25,0,0,1,.2-0.34,78.75,78.75,0,0,0,56.85-72.06c0.05-1.1.08-2.2,0.08-3.3a0.25,0.25,0,0,0-.29-0.29"/><path class="cls-2" d="M294,609.59L221.78,808H366.22Zm0,9.94,67.36,185.08H226.64Z"/></svg>