<svg xmlns="http://www.w3.org/2000/svg" viewBox="0 0 595.28 841.89"><defs><style>.cls-1{fill:#fff;}.cls-2{fill:none;stroke:#231f20;stroke-miterlimit:10;stroke-width:2px;}</style></defs><title>serpentine-doodle</title><path class="cls-1" d="M215.61 472.47c72.45 13.14 159.72 8.46 241.48-15.11l.35-.11c57.22-21.38 90.08-49 85.8-72-1.51-8.11-7.41-15.82-17.07-22.29-28.48-19.08-81.23-23.18-141.1-11-69.7 14.23-137.58 58.16-168.9 109.32q-1.69 2.76-3.23 5.54a3.84 3.84 0 0 0 2.67 5.65M330 622.85a3.86 3.86 0 0 0 1.7 6.85c38 6.66 76.29 6.78 102.84 2 34.59-6.17 68.51-19.6 66.29-35.68-2.28-13.11-37.62-17-69.71-14-35.78 3.53-73.26 18.98-101.12 40.83m-60.17 82c-1.11-21.74 6.13-43.62 21.1-63.86A3.83 3.83 0 0 0 289 635c-48.48-15.1-90.47-42.32-102.63-85.32-5.79-20.47-5.16-42 1.7-63.65a3.83 3.83 0 0 0-2.77-4.83c-27.4-7-52.18-16.73-73.18-29.09-38.5-22.62-63.12-53.7-71.21-89.85C22.4 279.57 79 170 247 124.85c65.57-17.62 147-22.44 224.08-13.29a3.86 3.86 0 0 1 3.38 4.31l-.93 7.37a3.85 3.85 0 0 1-4.29 3.33c-75.17-8.91-154.51-4.26-218.27 12.88-78 21-136.55 57.34-169.27 105.19-24.33 35.59-34 78.33-26 114.34 7.26 32.42 28.83 59.39 64.12 80.17 20.61 12.13 45.12 21.59 72.25 28.3a3.9 3.9 0 0 0 4.41-2.05q3-6 6.67-12c33.9-55.37 104.1-101 178.83-116.27 64.74-13.21 120.38-8.39 152.65 13.24 13.12 8.79 21.25 19.88 23.51 32.08 5.9 31.74-29 64.22-95.86 89.1l-.54.18c-85.89 24.86-178.06 29.27-254.14 14.5a3.85 3.85 0 0 0-4.4 2.51c-6.53 19.47-7.32 38.76-2.18 56.89 11.34 40.11 54.21 64.83 102.46 77.85a4 4 0 0 0 3.79-1c31-29.85 77.17-51.07 122.39-55.42 18.82-1.81 80.65-5.24 86.2 26.7 4.72 34.23-53.42 48.37-78.63 52.87-32.38 5.78-79.5 4.92-124.41-5.23a3.86 3.86 0 0 0-3.77 1.21q-.92 1.06-1.8 2.13c-15.52 18.77-23.16 39.11-22.24 59a3.84 3.84 0 0 1-3.48 4l-7.44.73a3.88 3.88 0 0 1-4.25-3.66"/><path class="cls-2" d="M215.61 472.47c72.45 13.14 159.72 8.46 241.48-15.11l.35-.11c57.22-21.38 90.08-49 85.8-72-1.51-8.11-7.41-15.82-17.07-22.29-28.48-19.08-81.23-23.18-141.1-11-69.7 14.23-137.58 58.16-168.9 109.32q-1.69 2.76-3.23 5.54a3.84 3.84 0 0 0 2.67 5.65zM330 622.85a3.86 3.86 0 0 0 1.7 6.85c38 6.66 76.29 6.78 102.84 2 34.59-6.17 68.51-19.6 66.29-35.68-2.28-13.11-37.62-17-69.71-14-35.78 3.53-73.26 18.98-101.12 40.83zm-60.17 82c-1.11-21.74 6.13-43.62 21.1-63.86A3.83 3.83 0 0 0 289 635c-48.48-15.1-90.47-42.32-102.63-85.32-5.79-20.47-5.16-42 1.7-63.65a3.83 3.83 0 0 0-2.77-4.83c-27.4-7-52.18-16.73-73.18-29.09-38.5-22.62-63.12-53.7-71.21-89.85C22.4 279.57 79 170 247 124.85c65.57-17.62 147-22.44 224.08-13.29a3.86 3.86 0 0 1 3.38 4.31l-.93 7.37a3.85 3.85 0 0 1-4.29 3.33c-75.17-8.91-154.51-4.26-218.27 12.88-78 21-136.55 57.34-169.27 105.19-24.33 35.59-34 78.33-26 114.34 7.26 32.42 28.83 59.39 64.12 80.17 20.61 12.13 45.12 21.59 72.25 28.3a3.9 3.9 0 0 0 4.41-2.05q3-6 6.67-12c33.9-55.37 104.1-101 178.83-116.27 64.74-13.21 120.38-8.39 152.65 13.24 13.12 8.79 21.25 19.88 23.51 32.08 5.9 31.74-29 64.22-95.86 89.1l-.54.18c-85.89 24.86-178.06 29.27-254.14 14.5a3.85 3.85 0 0 0-4.4 2.51c-6.53 19.47-7.32 38.76-2.18 56.89 11.34 40.11 54.21 64.83 102.46 77.85a4 4 0 0 0 3.79-1c31-29.85 77.17-51.07 122.39-55.42 18.82-1.81 80.65-5.24 86.2 26.7 4.72 34.23-53.42 48.37-78.63 52.87-32.38 5.78-79.5 4.92-124.41-5.23a3.86 3.86 0 0 0-3.77 1.21q-.92 1.06-1.8 2.13c-15.52 18.77-23.16 39.11-22.24 59a3.84 3.84 0 0 1-3.48 4l-7.44.73a3.88 3.88 0 0 1-4.26-3.63z"/></svg>